<?xml version="1.0" encoding="utf-8"?>
<!-- Generator: Adobe Illustrator 21.1.0, SVG Export Plug-In . SVG Version: 6.00 Build 0)  -->
<svg version="1.1" id="Layer_1" xmlns="http://www.w3.org/2000/svg" xmlns:xlink="http://www.w3.org/1999/xlink" x="0px" y="0px"
	 viewBox="0 0 792 612" style="enable-background:new 0 0 792 612;" xml:space="preserve">
<style type="text/css">
	.st0{fill:#FFFFFF;}
</style>
<path class="st0" d="M409.5,296.7l9.4-3.5l-9.4-3.7v-4.9l16.1,6.5v4l-16.1,6.5V296.7z M320.6,327.7c-3.4,0-6.2-1.7-6.2-5.5v-0.2
	c0-4.6,4-6.2,8.9-6.2h2.3v-0.9c0-1.9-0.8-3-2.8-3c-1.8,0-2.7,1-2.8,2.4h-5c0.4-4.2,3.7-6.2,8.1-6.2c4.5,0,7.8,1.9,7.8,6.6v12.6h-5.1
	v-2.2C324.8,326.5,323.1,327.7,320.6,327.7z M325.6,321v-1.8h-2.1c-2.6,0-3.9,0.7-3.9,2.4v0.2c0,1.3,0.8,2.2,2.6,2.2
	C324,324,325.6,323,325.6,321z M342.8,327.7c-5.2,0-9-3.2-9-9.6v-0.3c0-6.4,4-9.8,9-9.8c4.3,0,7.8,2.2,8.2,7.1h-5
	c-0.3-1.8-1.3-3-3.1-3c-2.2,0-3.8,1.8-3.8,5.5v0.6c0,3.8,1.4,5.5,3.8,5.5c1.8,0,3.1-1.3,3.4-3.4h4.8
	C350.8,324.6,347.9,327.7,342.8,327.7z M362.4,327.7c-5.2,0-9-3.2-9-9.6v-0.3c0-6.4,4-9.8,9-9.8c4.3,0,7.8,2.2,8.2,7.1h-5
	c-0.3-1.8-1.3-3-3.1-3c-2.2,0-3.8,1.8-3.8,5.5v0.6c0,3.8,1.4,5.5,3.8,5.5c1.8,0,3.1-1.3,3.4-3.4h4.8
	C370.4,324.6,367.5,327.7,362.4,327.7z M382.1,327.7c-5.4,0-9.1-3.2-9.1-9.5v-0.4c0-6.3,3.9-9.8,9-9.8c4.7,0,8.6,2.6,8.6,8.9v2.3
	h-12.2c0.2,3.4,1.7,4.7,3.9,4.7c2,0,3.1-1.1,3.5-2.4h4.9C390,325,387.1,327.7,382.1,327.7z M378.4,315.7h7.1c-0.1-2.8-1.4-4-3.5-4
	C380.3,311.8,378.8,312.7,378.4,315.7z M393.8,308.5h5.3v2.8c0.9-1.8,2.8-3.2,5.7-3.2c3.4,0,5.7,2.1,5.7,6.6v12.6h-5.3v-11.8
	c0-2.2-0.9-3.2-2.8-3.2c-1.8,0-3.3,1.1-3.3,3.5v11.5h-5.3V308.5z M420.2,302.8v5.7h3.6v3.9h-3.6v8.9c0,1.4,0.6,2.1,1.9,2.1
	c0.8,0,1.3-0.1,1.8-0.3v4.1c-0.6,0.2-1.7,0.4-3,0.4c-4.1,0-6-1.9-6-5.7v-9.5h-2.2v-3.9h2.2V305L420.2,302.8z M443.6,327.3h-5.3v-2.8
	c-0.9,1.8-2.7,3.2-5.5,3.2c-3.4,0-5.9-2.1-5.9-6.5v-12.7h5.3v12c0,2.2,0.9,3.2,2.7,3.2c1.8,0,3.3-1.2,3.3-3.5v-11.6h5.3V327.3z
	 M447.5,308.5h5.3v3.5c1.1-2.5,2.9-3.7,5.7-3.7v5.2c-3.6,0-5.7,1.1-5.7,4.2v9.7h-5.3V308.5z M469.2,327.7c-5.4,0-9.1-3.2-9.1-9.5
	v-0.4c0-6.3,3.9-9.8,9-9.8c4.7,0,8.6,2.6,8.6,8.9v2.3h-12.2c0.2,3.4,1.7,4.7,3.9,4.7c2,0,3.1-1.1,3.5-2.4h4.9
	C477,325,474.1,327.7,469.2,327.7z M465.4,315.7h7.1c-0.1-2.8-1.4-4-3.5-4C467.4,311.8,465.9,312.7,465.4,315.7z"/>
</svg>
